<mxfile host="app.diagrams.net" modified="2024-03-07T01:00:29.491Z" agent="Mozilla/5.0 (Windows NT 10.0; Win64; x64) AppleWebKit/537.36 (KHTML, like Gecko) Chrome/122.0.0.0 Safari/537.36" version="24.0.2" etag="TmcQKioVHmcDXQCX4MbN" type="device" pages="4">
  <diagram id="RXnP922MJyov0dE7asX7" name="Cas Utilisateur">
    <mxGraphModel dx="2266" dy="822" grid="1" gridSize="10" guides="1" tooltips="1" connect="1" arrows="1" fold="1" page="1" pageScale="1" pageWidth="827" pageHeight="1169" math="0" shadow="0">
      <root>
        <mxCell id="0" />
        <mxCell id="1" parent="0" />
        <mxCell id="9bkewiAqY9aisritPCOF-1" value="Cas d&#39;Utilisation" style="swimlane;whiteSpace=wrap;html=1;sketch=1;hachureGap=4;jiggle=2;curveFitting=1;fontFamily=Architects Daughter;fontSource=https%3A%2F%2Ffonts.googleapis.com%2Fcss%3Ffamily%3DArchitects%2BDaughter;fontSize=20;" vertex="1" parent="1">
          <mxGeometry x="243" y="240" width="370" height="610" as="geometry" />
        </mxCell>
        <mxCell id="9bkewiAqY9aisritPCOF-2" value="" style="edgeStyle=orthogonalEdgeStyle;rounded=0;sketch=1;hachureGap=4;jiggle=2;curveFitting=1;orthogonalLoop=1;jettySize=auto;html=1;fontFamily=Architects Daughter;fontSource=https%3A%2F%2Ffonts.googleapis.com%2Fcss%3Ffamily%3DArchitects%2BDaughter;fontSize=16;" edge="1" parent="9bkewiAqY9aisritPCOF-1" source="9bkewiAqY9aisritPCOF-3" target="9bkewiAqY9aisritPCOF-7">
          <mxGeometry relative="1" as="geometry" />
        </mxCell>
        <mxCell id="9bkewiAqY9aisritPCOF-3" value="Connexion" style="rounded=0;whiteSpace=wrap;html=1;sketch=1;hachureGap=4;jiggle=2;curveFitting=1;fontFamily=Architects Daughter;fontSource=https%3A%2F%2Ffonts.googleapis.com%2Fcss%3Ffamily%3DArchitects%2BDaughter;fontSize=20;" vertex="1" parent="9bkewiAqY9aisritPCOF-1">
          <mxGeometry x="20" y="230" width="120" height="60" as="geometry" />
        </mxCell>
        <mxCell id="9bkewiAqY9aisritPCOF-4" style="edgeStyle=orthogonalEdgeStyle;rounded=0;sketch=1;hachureGap=4;jiggle=2;curveFitting=1;orthogonalLoop=1;jettySize=auto;html=1;fontFamily=Architects Daughter;fontSource=https%3A%2F%2Ffonts.googleapis.com%2Fcss%3Ffamily%3DArchitects%2BDaughter;fontSize=16;" edge="1" parent="9bkewiAqY9aisritPCOF-1" source="9bkewiAqY9aisritPCOF-5" target="9bkewiAqY9aisritPCOF-3">
          <mxGeometry relative="1" as="geometry" />
        </mxCell>
        <mxCell id="9bkewiAqY9aisritPCOF-5" value="Inscription" style="rounded=0;whiteSpace=wrap;html=1;sketch=1;hachureGap=4;jiggle=2;curveFitting=1;fontFamily=Architects Daughter;fontSource=https%3A%2F%2Ffonts.googleapis.com%2Fcss%3Ffamily%3DArchitects%2BDaughter;fontSize=20;fillColor=#f5f5f5;fontColor=#333333;strokeColor=#666666;" vertex="1" parent="9bkewiAqY9aisritPCOF-1">
          <mxGeometry x="20" y="120" width="120" height="60" as="geometry" />
        </mxCell>
        <mxCell id="9bkewiAqY9aisritPCOF-6" value="" style="edgeStyle=orthogonalEdgeStyle;rounded=0;sketch=1;hachureGap=4;jiggle=2;curveFitting=1;orthogonalLoop=1;jettySize=auto;html=1;fontFamily=Architects Daughter;fontSource=https%3A%2F%2Ffonts.googleapis.com%2Fcss%3Ffamily%3DArchitects%2BDaughter;fontSize=16;dashed=1;" edge="1" parent="9bkewiAqY9aisritPCOF-1" source="9bkewiAqY9aisritPCOF-7" target="9bkewiAqY9aisritPCOF-8">
          <mxGeometry relative="1" as="geometry" />
        </mxCell>
        <mxCell id="9bkewiAqY9aisritPCOF-7" value="Crée un Ticket" style="rounded=0;whiteSpace=wrap;html=1;sketch=1;hachureGap=4;jiggle=2;curveFitting=1;fontFamily=Architects Daughter;fontSource=https%3A%2F%2Ffonts.googleapis.com%2Fcss%3Ffamily%3DArchitects%2BDaughter;fontSize=20;" vertex="1" parent="9bkewiAqY9aisritPCOF-1">
          <mxGeometry x="20" y="370" width="120" height="60" as="geometry" />
        </mxCell>
        <mxCell id="9bkewiAqY9aisritPCOF-8" value="CRED" style="whiteSpace=wrap;html=1;fontSize=20;fontFamily=Architects Daughter;rounded=0;sketch=1;hachureGap=4;jiggle=2;curveFitting=1;fontSource=https%3A%2F%2Ffonts.googleapis.com%2Fcss%3Ffamily%3DArchitects%2BDaughter;" vertex="1" parent="9bkewiAqY9aisritPCOF-1">
          <mxGeometry x="20" y="490" width="120" height="60" as="geometry" />
        </mxCell>
        <mxCell id="9bkewiAqY9aisritPCOF-10" value="" style="edgeStyle=orthogonalEdgeStyle;rounded=0;sketch=1;hachureGap=4;jiggle=2;curveFitting=1;orthogonalLoop=1;jettySize=auto;html=1;fontFamily=Architects Daughter;fontSource=https%3A%2F%2Ffonts.googleapis.com%2Fcss%3Ffamily%3DArchitects%2BDaughter;fontSize=16;" edge="1" parent="9bkewiAqY9aisritPCOF-1" source="9bkewiAqY9aisritPCOF-11" target="9bkewiAqY9aisritPCOF-12">
          <mxGeometry relative="1" as="geometry" />
        </mxCell>
        <mxCell id="9bkewiAqY9aisritPCOF-11" value="Gestion Ticket" style="swimlane;whiteSpace=wrap;html=1;sketch=1;hachureGap=4;jiggle=2;curveFitting=1;fontFamily=Architects Daughter;fontSource=https%3A%2F%2Ffonts.googleapis.com%2Fcss%3Ffamily%3DArchitects%2BDaughter;fontSize=20;startSize=30;fillColor=#dae8fc;strokeColor=#6c8ebf;" vertex="1" parent="9bkewiAqY9aisritPCOF-1">
          <mxGeometry x="180.19" y="360" width="166.5" height="240" as="geometry">
            <mxRectangle x="180.19" y="360" width="130" height="40" as="alternateBounds" />
          </mxGeometry>
        </mxCell>
        <mxCell id="9bkewiAqY9aisritPCOF-20" value="" style="edgeStyle=orthogonalEdgeStyle;rounded=0;sketch=1;hachureGap=4;jiggle=2;curveFitting=1;orthogonalLoop=1;jettySize=auto;html=1;" edge="1" parent="9bkewiAqY9aisritPCOF-11" source="9bkewiAqY9aisritPCOF-9" target="9bkewiAqY9aisritPCOF-19">
          <mxGeometry relative="1" as="geometry" />
        </mxCell>
        <mxCell id="9bkewiAqY9aisritPCOF-9" value="Type de priorité" style="whiteSpace=wrap;html=1;fontSize=20;fontFamily=Architects Daughter;rounded=0;sketch=1;hachureGap=4;jiggle=2;curveFitting=1;fontSource=https%3A%2F%2Ffonts.googleapis.com%2Fcss%3Ffamily%3DArchitects%2BDaughter;" vertex="1" parent="9bkewiAqY9aisritPCOF-11">
          <mxGeometry x="23.25" y="60" width="120" height="60" as="geometry" />
        </mxCell>
        <mxCell id="9bkewiAqY9aisritPCOF-19" value="Type de demande" style="whiteSpace=wrap;html=1;fontSize=20;fontFamily=Architects Daughter;rounded=0;sketch=1;hachureGap=4;jiggle=2;curveFitting=1;fontSource=https%3A%2F%2Ffonts.googleapis.com%2Fcss%3Ffamily%3DArchitects%2BDaughter;" vertex="1" parent="9bkewiAqY9aisritPCOF-11">
          <mxGeometry x="23.25" y="160" width="120" height="60" as="geometry" />
        </mxCell>
        <mxCell id="9bkewiAqY9aisritPCOF-12" value="Messagerie" style="ellipse;whiteSpace=wrap;html=1;fontSize=20;fontFamily=Architects Daughter;fillColor=#f8cecc;strokeColor=#b85450;fontStyle=1;startSize=30;sketch=1;hachureGap=4;jiggle=2;curveFitting=1;fontSource=https%3A%2F%2Ffonts.googleapis.com%2Fcss%3Ffamily%3DArchitects%2BDaughter;" vertex="1" parent="9bkewiAqY9aisritPCOF-1">
          <mxGeometry x="173.5" y="90" width="179.88" height="170" as="geometry" />
        </mxCell>
        <mxCell id="9bkewiAqY9aisritPCOF-13" value="Création Ticket" style="swimlane;whiteSpace=wrap;html=1;sketch=1;hachureGap=4;jiggle=2;curveFitting=1;fontFamily=Architects Daughter;fontSource=https%3A%2F%2Ffonts.googleapis.com%2Fcss%3Ffamily%3DArchitects%2BDaughter;fontSize=20;fillColor=#d5e8d4;strokeColor=#82b366;" vertex="1" parent="9bkewiAqY9aisritPCOF-1">
          <mxGeometry x="10" y="50" width="150" height="520" as="geometry">
            <mxRectangle x="10" y="50" width="90" height="40" as="alternateBounds" />
          </mxGeometry>
        </mxCell>
        <mxCell id="9bkewiAqY9aisritPCOF-14" value="" style="edgeStyle=orthogonalEdgeStyle;rounded=0;sketch=1;hachureGap=4;jiggle=2;curveFitting=1;orthogonalLoop=1;jettySize=auto;html=1;fontFamily=Architects Daughter;fontSource=https%3A%2F%2Ffonts.googleapis.com%2Fcss%3Ffamily%3DArchitects%2BDaughter;fontSize=16;exitX=1;exitY=0.5;exitDx=0;exitDy=0;" edge="1" parent="9bkewiAqY9aisritPCOF-1" source="9bkewiAqY9aisritPCOF-7" target="9bkewiAqY9aisritPCOF-9">
          <mxGeometry relative="1" as="geometry">
            <Array as="points">
              <mxPoint x="263" y="400" />
            </Array>
          </mxGeometry>
        </mxCell>
        <mxCell id="9bkewiAqY9aisritPCOF-15" value="Utilisateur" style="shape=umlActor;verticalLabelPosition=bottom;verticalAlign=top;html=1;outlineConnect=0;sketch=1;hachureGap=4;jiggle=2;curveFitting=1;fontFamily=Architects Daughter;fontSource=https%3A%2F%2Ffonts.googleapis.com%2Fcss%3Ffamily%3DArchitects%2BDaughter;fontSize=20;fillColor=#d5e8d4;strokeColor=#82b366;" vertex="1" parent="1">
          <mxGeometry x="64" y="390" width="90" height="170" as="geometry" />
        </mxCell>
        <mxCell id="9bkewiAqY9aisritPCOF-16" value="&lt;div style=&quot;&quot;&gt;&lt;span style=&quot;background-color: initial;&quot;&gt;La partie messagerie est prévu dans le future&lt;/span&gt;&lt;/div&gt;" style="whiteSpace=wrap;html=1;shape=mxgraph.basic.rectCallout;dx=30;dy=15;boundedLbl=1;sketch=1;hachureGap=4;jiggle=2;curveFitting=1;fontFamily=Architects Daughter;fontSource=https%3A%2F%2Ffonts.googleapis.com%2Fcss%3Ffamily%3DArchitects%2BDaughter;fontSize=20;align=center;" vertex="1" parent="1">
          <mxGeometry x="624" y="250" width="180" height="150" as="geometry" />
        </mxCell>
        <mxCell id="9bkewiAqY9aisritPCOF-17" value="La partie inscription n&#39;est pas prévu dans notre cas je la laisse tout de même pour future améliorations" style="shape=callout;whiteSpace=wrap;html=1;perimeter=calloutPerimeter;sketch=1;hachureGap=4;jiggle=2;curveFitting=1;fontFamily=Architects Daughter;fontSource=https%3A%2F%2Ffonts.googleapis.com%2Fcss%3Ffamily%3DArchitects%2BDaughter;fontSize=20;position2=0.92;base=29;size=20;position=0.77;" vertex="1" parent="1">
          <mxGeometry x="10" y="230" width="220" height="170" as="geometry" />
        </mxCell>
      </root>
    </mxGraphModel>
  </diagram>
  <diagram id="KwvkCumbcHJ6E09tdNgQ" name="Diagramme de Séquence">
    <mxGraphModel dx="3093" dy="822" grid="1" gridSize="10" guides="1" tooltips="1" connect="1" arrows="1" fold="1" page="1" pageScale="1" pageWidth="827" pageHeight="1169" math="0" shadow="0">
      <root>
        <mxCell id="0" />
        <mxCell id="1" parent="0" />
        <mxCell id="X9zVQ8NlHc8R4bNsiKsq-38" value=":Object" style="shape=umlLifeline;perimeter=lifelinePerimeter;whiteSpace=wrap;html=1;container=0;dropTarget=0;collapsible=0;recursiveResize=0;outlineConnect=0;portConstraint=eastwest;newEdgeStyle={&quot;edgeStyle&quot;:&quot;elbowEdgeStyle&quot;,&quot;elbow&quot;:&quot;vertical&quot;,&quot;curved&quot;:0,&quot;rounded&quot;:0};sketch=1;hachureGap=4;jiggle=2;curveFitting=1;" vertex="1" parent="1">
          <mxGeometry x="20" y="20" width="100" height="300" as="geometry" />
        </mxCell>
        <mxCell id="X9zVQ8NlHc8R4bNsiKsq-39" value="" style="html=1;points=[];perimeter=orthogonalPerimeter;outlineConnect=0;targetShapes=umlLifeline;portConstraint=eastwest;newEdgeStyle={&quot;edgeStyle&quot;:&quot;elbowEdgeStyle&quot;,&quot;elbow&quot;:&quot;vertical&quot;,&quot;curved&quot;:0,&quot;rounded&quot;:0};sketch=1;hachureGap=4;jiggle=2;curveFitting=1;" vertex="1" parent="X9zVQ8NlHc8R4bNsiKsq-38">
          <mxGeometry x="45" y="70" width="10" height="190" as="geometry" />
        </mxCell>
        <mxCell id="X9zVQ8NlHc8R4bNsiKsq-40" value="dispatch" style="html=1;verticalAlign=bottom;startArrow=oval;endArrow=block;startSize=8;edgeStyle=elbowEdgeStyle;elbow=vertical;curved=0;rounded=0;sketch=1;hachureGap=4;jiggle=2;curveFitting=1;" edge="1" parent="X9zVQ8NlHc8R4bNsiKsq-38" target="X9zVQ8NlHc8R4bNsiKsq-39">
          <mxGeometry relative="1" as="geometry">
            <mxPoint x="-15" y="70" as="sourcePoint" />
          </mxGeometry>
        </mxCell>
        <mxCell id="X9zVQ8NlHc8R4bNsiKsq-41" value="" style="html=1;points=[];perimeter=orthogonalPerimeter;outlineConnect=0;targetShapes=umlLifeline;portConstraint=eastwest;newEdgeStyle={&quot;edgeStyle&quot;:&quot;elbowEdgeStyle&quot;,&quot;elbow&quot;:&quot;vertical&quot;,&quot;curved&quot;:0,&quot;rounded&quot;:0};sketch=1;hachureGap=4;jiggle=2;curveFitting=1;" vertex="1" parent="X9zVQ8NlHc8R4bNsiKsq-38">
          <mxGeometry x="50" y="120" width="10" height="80" as="geometry" />
        </mxCell>
        <mxCell id="X9zVQ8NlHc8R4bNsiKsq-42" value=":Object" style="shape=umlLifeline;perimeter=lifelinePerimeter;whiteSpace=wrap;html=1;container=0;dropTarget=0;collapsible=0;recursiveResize=0;outlineConnect=0;portConstraint=eastwest;newEdgeStyle={&quot;edgeStyle&quot;:&quot;elbowEdgeStyle&quot;,&quot;elbow&quot;:&quot;vertical&quot;,&quot;curved&quot;:0,&quot;rounded&quot;:0};sketch=1;hachureGap=4;jiggle=2;curveFitting=1;" vertex="1" parent="1">
          <mxGeometry x="200" y="20" width="100" height="300" as="geometry" />
        </mxCell>
        <mxCell id="X9zVQ8NlHc8R4bNsiKsq-43" value="" style="html=1;points=[];perimeter=orthogonalPerimeter;outlineConnect=0;targetShapes=umlLifeline;portConstraint=eastwest;newEdgeStyle={&quot;edgeStyle&quot;:&quot;elbowEdgeStyle&quot;,&quot;elbow&quot;:&quot;vertical&quot;,&quot;curved&quot;:0,&quot;rounded&quot;:0};sketch=1;hachureGap=4;jiggle=2;curveFitting=1;" vertex="1" parent="X9zVQ8NlHc8R4bNsiKsq-42">
          <mxGeometry x="45" y="80" width="10" height="170" as="geometry" />
        </mxCell>
        <mxCell id="X9zVQ8NlHc8R4bNsiKsq-44" value="dispatch" style="html=1;verticalAlign=bottom;endArrow=block;edgeStyle=elbowEdgeStyle;elbow=vertical;curved=0;rounded=0;sketch=1;hachureGap=4;jiggle=2;curveFitting=1;" edge="1" parent="1" source="X9zVQ8NlHc8R4bNsiKsq-39" target="X9zVQ8NlHc8R4bNsiKsq-43">
          <mxGeometry relative="1" as="geometry">
            <mxPoint x="175" y="110" as="sourcePoint" />
            <Array as="points">
              <mxPoint x="160" y="100" />
            </Array>
          </mxGeometry>
        </mxCell>
        <mxCell id="X9zVQ8NlHc8R4bNsiKsq-45" value="return" style="html=1;verticalAlign=bottom;endArrow=open;dashed=1;endSize=8;edgeStyle=elbowEdgeStyle;elbow=vertical;curved=0;rounded=0;sketch=1;hachureGap=4;jiggle=2;curveFitting=1;" edge="1" parent="1" source="X9zVQ8NlHc8R4bNsiKsq-43" target="X9zVQ8NlHc8R4bNsiKsq-39">
          <mxGeometry relative="1" as="geometry">
            <mxPoint x="175" y="185" as="targetPoint" />
            <Array as="points">
              <mxPoint x="170" y="260" />
            </Array>
          </mxGeometry>
        </mxCell>
        <mxCell id="X9zVQ8NlHc8R4bNsiKsq-46" value="callback" style="html=1;verticalAlign=bottom;endArrow=block;edgeStyle=elbowEdgeStyle;elbow=vertical;curved=0;rounded=0;sketch=1;hachureGap=4;jiggle=2;curveFitting=1;" edge="1" parent="1" source="X9zVQ8NlHc8R4bNsiKsq-43" target="X9zVQ8NlHc8R4bNsiKsq-41">
          <mxGeometry relative="1" as="geometry">
            <mxPoint x="155" y="140" as="sourcePoint" />
            <Array as="points">
              <mxPoint x="170" y="140" />
            </Array>
          </mxGeometry>
        </mxCell>
        <mxCell id="X9zVQ8NlHc8R4bNsiKsq-47" value="return" style="html=1;verticalAlign=bottom;endArrow=open;dashed=1;endSize=8;edgeStyle=elbowEdgeStyle;elbow=vertical;curved=0;rounded=0;sketch=1;hachureGap=4;jiggle=2;curveFitting=1;" edge="1" parent="1" source="X9zVQ8NlHc8R4bNsiKsq-41" target="X9zVQ8NlHc8R4bNsiKsq-43">
          <mxGeometry relative="1" as="geometry">
            <mxPoint x="155" y="215" as="targetPoint" />
            <Array as="points">
              <mxPoint x="160" y="210" />
            </Array>
          </mxGeometry>
        </mxCell>
      </root>
    </mxGraphModel>
  </diagram>
  <diagram id="JlDPQBvfOoWTeh7DIq1L" name="Diagramme de Classe">
    <mxGraphModel dx="2266" dy="822" grid="1" gridSize="10" guides="1" tooltips="1" connect="1" arrows="1" fold="1" page="1" pageScale="1" pageWidth="827" pageHeight="1169" math="0" shadow="0">
      <root>
        <mxCell id="0" />
        <mxCell id="1" parent="0" />
        <mxCell id="y6D1HJ4HrFxO0To-Xi7T-1" value="Person" style="swimlane;fontStyle=2;align=center;verticalAlign=top;childLayout=stackLayout;horizontal=1;startSize=26;horizontalStack=0;resizeParent=1;resizeLast=0;collapsible=1;marginBottom=0;rounded=0;shadow=0;strokeWidth=1;sketch=1;hachureGap=4;jiggle=2;curveFitting=1;" vertex="1" parent="1">
          <mxGeometry x="120" y="20" width="160" height="138" as="geometry">
            <mxRectangle x="230" y="140" width="160" height="26" as="alternateBounds" />
          </mxGeometry>
        </mxCell>
        <mxCell id="y6D1HJ4HrFxO0To-Xi7T-2" value="Name" style="text;align=left;verticalAlign=top;spacingLeft=4;spacingRight=4;overflow=hidden;rotatable=0;points=[[0,0.5],[1,0.5]];portConstraint=eastwest;" vertex="1" parent="y6D1HJ4HrFxO0To-Xi7T-1">
          <mxGeometry y="26" width="160" height="26" as="geometry" />
        </mxCell>
        <mxCell id="y6D1HJ4HrFxO0To-Xi7T-3" value="Phone Number" style="text;align=left;verticalAlign=top;spacingLeft=4;spacingRight=4;overflow=hidden;rotatable=0;points=[[0,0.5],[1,0.5]];portConstraint=eastwest;rounded=0;shadow=0;html=0;" vertex="1" parent="y6D1HJ4HrFxO0To-Xi7T-1">
          <mxGeometry y="52" width="160" height="26" as="geometry" />
        </mxCell>
        <mxCell id="y6D1HJ4HrFxO0To-Xi7T-4" value="Email Address" style="text;align=left;verticalAlign=top;spacingLeft=4;spacingRight=4;overflow=hidden;rotatable=0;points=[[0,0.5],[1,0.5]];portConstraint=eastwest;rounded=0;shadow=0;html=0;" vertex="1" parent="y6D1HJ4HrFxO0To-Xi7T-1">
          <mxGeometry y="78" width="160" height="26" as="geometry" />
        </mxCell>
        <mxCell id="y6D1HJ4HrFxO0To-Xi7T-5" value="" style="line;html=1;strokeWidth=1;align=left;verticalAlign=middle;spacingTop=-1;spacingLeft=3;spacingRight=3;rotatable=0;labelPosition=right;points=[];portConstraint=eastwest;sketch=1;hachureGap=4;jiggle=2;curveFitting=1;" vertex="1" parent="y6D1HJ4HrFxO0To-Xi7T-1">
          <mxGeometry y="104" width="160" height="8" as="geometry" />
        </mxCell>
        <mxCell id="y6D1HJ4HrFxO0To-Xi7T-6" value="Purchase Parking Pass" style="text;align=left;verticalAlign=top;spacingLeft=4;spacingRight=4;overflow=hidden;rotatable=0;points=[[0,0.5],[1,0.5]];portConstraint=eastwest;" vertex="1" parent="y6D1HJ4HrFxO0To-Xi7T-1">
          <mxGeometry y="112" width="160" height="26" as="geometry" />
        </mxCell>
        <mxCell id="y6D1HJ4HrFxO0To-Xi7T-7" value="Student" style="swimlane;fontStyle=0;align=center;verticalAlign=top;childLayout=stackLayout;horizontal=1;startSize=26;horizontalStack=0;resizeParent=1;resizeLast=0;collapsible=1;marginBottom=0;rounded=0;shadow=0;strokeWidth=1;sketch=1;hachureGap=4;jiggle=2;curveFitting=1;" vertex="1" parent="1">
          <mxGeometry x="20" y="260" width="160" height="138" as="geometry">
            <mxRectangle x="130" y="380" width="160" height="26" as="alternateBounds" />
          </mxGeometry>
        </mxCell>
        <mxCell id="y6D1HJ4HrFxO0To-Xi7T-8" value="Student Number" style="text;align=left;verticalAlign=top;spacingLeft=4;spacingRight=4;overflow=hidden;rotatable=0;points=[[0,0.5],[1,0.5]];portConstraint=eastwest;" vertex="1" parent="y6D1HJ4HrFxO0To-Xi7T-7">
          <mxGeometry y="26" width="160" height="26" as="geometry" />
        </mxCell>
        <mxCell id="y6D1HJ4HrFxO0To-Xi7T-9" value="Average Mark" style="text;align=left;verticalAlign=top;spacingLeft=4;spacingRight=4;overflow=hidden;rotatable=0;points=[[0,0.5],[1,0.5]];portConstraint=eastwest;rounded=0;shadow=0;html=0;" vertex="1" parent="y6D1HJ4HrFxO0To-Xi7T-7">
          <mxGeometry y="52" width="160" height="26" as="geometry" />
        </mxCell>
        <mxCell id="y6D1HJ4HrFxO0To-Xi7T-10" value="" style="line;html=1;strokeWidth=1;align=left;verticalAlign=middle;spacingTop=-1;spacingLeft=3;spacingRight=3;rotatable=0;labelPosition=right;points=[];portConstraint=eastwest;sketch=1;hachureGap=4;jiggle=2;curveFitting=1;" vertex="1" parent="y6D1HJ4HrFxO0To-Xi7T-7">
          <mxGeometry y="78" width="160" height="8" as="geometry" />
        </mxCell>
        <mxCell id="y6D1HJ4HrFxO0To-Xi7T-11" value="Is Eligible To Enroll" style="text;align=left;verticalAlign=top;spacingLeft=4;spacingRight=4;overflow=hidden;rotatable=0;points=[[0,0.5],[1,0.5]];portConstraint=eastwest;fontStyle=4" vertex="1" parent="y6D1HJ4HrFxO0To-Xi7T-7">
          <mxGeometry y="86" width="160" height="26" as="geometry" />
        </mxCell>
        <mxCell id="y6D1HJ4HrFxO0To-Xi7T-12" value="Get Seminars Taken" style="text;align=left;verticalAlign=top;spacingLeft=4;spacingRight=4;overflow=hidden;rotatable=0;points=[[0,0.5],[1,0.5]];portConstraint=eastwest;" vertex="1" parent="y6D1HJ4HrFxO0To-Xi7T-7">
          <mxGeometry y="112" width="160" height="26" as="geometry" />
        </mxCell>
        <mxCell id="y6D1HJ4HrFxO0To-Xi7T-13" value="" style="endArrow=block;endSize=10;endFill=0;shadow=0;strokeWidth=1;rounded=0;edgeStyle=elbowEdgeStyle;elbow=vertical;sketch=1;hachureGap=4;jiggle=2;curveFitting=1;" edge="1" parent="1" source="y6D1HJ4HrFxO0To-Xi7T-7" target="y6D1HJ4HrFxO0To-Xi7T-1">
          <mxGeometry width="160" relative="1" as="geometry">
            <mxPoint x="100" y="103" as="sourcePoint" />
            <mxPoint x="100" y="103" as="targetPoint" />
          </mxGeometry>
        </mxCell>
        <mxCell id="y6D1HJ4HrFxO0To-Xi7T-14" value="Professor" style="swimlane;fontStyle=0;align=center;verticalAlign=top;childLayout=stackLayout;horizontal=1;startSize=26;horizontalStack=0;resizeParent=1;resizeLast=0;collapsible=1;marginBottom=0;rounded=0;shadow=0;strokeWidth=1;sketch=1;hachureGap=4;jiggle=2;curveFitting=1;" vertex="1" parent="1">
          <mxGeometry x="230" y="260" width="160" height="70" as="geometry">
            <mxRectangle x="340" y="380" width="170" height="26" as="alternateBounds" />
          </mxGeometry>
        </mxCell>
        <mxCell id="y6D1HJ4HrFxO0To-Xi7T-15" value="Salary" style="text;align=left;verticalAlign=top;spacingLeft=4;spacingRight=4;overflow=hidden;rotatable=0;points=[[0,0.5],[1,0.5]];portConstraint=eastwest;" vertex="1" parent="y6D1HJ4HrFxO0To-Xi7T-14">
          <mxGeometry y="26" width="160" height="26" as="geometry" />
        </mxCell>
        <mxCell id="y6D1HJ4HrFxO0To-Xi7T-16" value="" style="line;html=1;strokeWidth=1;align=left;verticalAlign=middle;spacingTop=-1;spacingLeft=3;spacingRight=3;rotatable=0;labelPosition=right;points=[];portConstraint=eastwest;sketch=1;hachureGap=4;jiggle=2;curveFitting=1;" vertex="1" parent="y6D1HJ4HrFxO0To-Xi7T-14">
          <mxGeometry y="52" width="160" height="8" as="geometry" />
        </mxCell>
        <mxCell id="y6D1HJ4HrFxO0To-Xi7T-17" value="" style="endArrow=block;endSize=10;endFill=0;shadow=0;strokeWidth=1;rounded=0;edgeStyle=elbowEdgeStyle;elbow=vertical;sketch=1;hachureGap=4;jiggle=2;curveFitting=1;" edge="1" parent="1" source="y6D1HJ4HrFxO0To-Xi7T-14" target="y6D1HJ4HrFxO0To-Xi7T-1">
          <mxGeometry width="160" relative="1" as="geometry">
            <mxPoint x="110" y="273" as="sourcePoint" />
            <mxPoint x="210" y="171" as="targetPoint" />
          </mxGeometry>
        </mxCell>
        <mxCell id="y6D1HJ4HrFxO0To-Xi7T-18" value="Address" style="swimlane;fontStyle=0;align=center;verticalAlign=top;childLayout=stackLayout;horizontal=1;startSize=26;horizontalStack=0;resizeParent=1;resizeLast=0;collapsible=1;marginBottom=0;rounded=0;shadow=0;strokeWidth=1;sketch=1;hachureGap=4;jiggle=2;curveFitting=1;" vertex="1" parent="1">
          <mxGeometry x="408" y="20" width="160" height="216" as="geometry">
            <mxRectangle x="550" y="140" width="160" height="26" as="alternateBounds" />
          </mxGeometry>
        </mxCell>
        <mxCell id="y6D1HJ4HrFxO0To-Xi7T-19" value="Street" style="text;align=left;verticalAlign=top;spacingLeft=4;spacingRight=4;overflow=hidden;rotatable=0;points=[[0,0.5],[1,0.5]];portConstraint=eastwest;" vertex="1" parent="y6D1HJ4HrFxO0To-Xi7T-18">
          <mxGeometry y="26" width="160" height="26" as="geometry" />
        </mxCell>
        <mxCell id="y6D1HJ4HrFxO0To-Xi7T-20" value="City" style="text;align=left;verticalAlign=top;spacingLeft=4;spacingRight=4;overflow=hidden;rotatable=0;points=[[0,0.5],[1,0.5]];portConstraint=eastwest;rounded=0;shadow=0;html=0;" vertex="1" parent="y6D1HJ4HrFxO0To-Xi7T-18">
          <mxGeometry y="52" width="160" height="26" as="geometry" />
        </mxCell>
        <mxCell id="y6D1HJ4HrFxO0To-Xi7T-21" value="State" style="text;align=left;verticalAlign=top;spacingLeft=4;spacingRight=4;overflow=hidden;rotatable=0;points=[[0,0.5],[1,0.5]];portConstraint=eastwest;rounded=0;shadow=0;html=0;" vertex="1" parent="y6D1HJ4HrFxO0To-Xi7T-18">
          <mxGeometry y="78" width="160" height="26" as="geometry" />
        </mxCell>
        <mxCell id="y6D1HJ4HrFxO0To-Xi7T-22" value="Postal Code" style="text;align=left;verticalAlign=top;spacingLeft=4;spacingRight=4;overflow=hidden;rotatable=0;points=[[0,0.5],[1,0.5]];portConstraint=eastwest;rounded=0;shadow=0;html=0;" vertex="1" parent="y6D1HJ4HrFxO0To-Xi7T-18">
          <mxGeometry y="104" width="160" height="26" as="geometry" />
        </mxCell>
        <mxCell id="y6D1HJ4HrFxO0To-Xi7T-23" value="Country" style="text;align=left;verticalAlign=top;spacingLeft=4;spacingRight=4;overflow=hidden;rotatable=0;points=[[0,0.5],[1,0.5]];portConstraint=eastwest;rounded=0;shadow=0;html=0;" vertex="1" parent="y6D1HJ4HrFxO0To-Xi7T-18">
          <mxGeometry y="130" width="160" height="26" as="geometry" />
        </mxCell>
        <mxCell id="y6D1HJ4HrFxO0To-Xi7T-24" value="" style="line;html=1;strokeWidth=1;align=left;verticalAlign=middle;spacingTop=-1;spacingLeft=3;spacingRight=3;rotatable=0;labelPosition=right;points=[];portConstraint=eastwest;sketch=1;hachureGap=4;jiggle=2;curveFitting=1;" vertex="1" parent="y6D1HJ4HrFxO0To-Xi7T-18">
          <mxGeometry y="156" width="160" height="8" as="geometry" />
        </mxCell>
        <mxCell id="y6D1HJ4HrFxO0To-Xi7T-25" value="Validate" style="text;align=left;verticalAlign=top;spacingLeft=4;spacingRight=4;overflow=hidden;rotatable=0;points=[[0,0.5],[1,0.5]];portConstraint=eastwest;" vertex="1" parent="y6D1HJ4HrFxO0To-Xi7T-18">
          <mxGeometry y="164" width="160" height="26" as="geometry" />
        </mxCell>
        <mxCell id="y6D1HJ4HrFxO0To-Xi7T-26" value="Output As Label" style="text;align=left;verticalAlign=top;spacingLeft=4;spacingRight=4;overflow=hidden;rotatable=0;points=[[0,0.5],[1,0.5]];portConstraint=eastwest;" vertex="1" parent="y6D1HJ4HrFxO0To-Xi7T-18">
          <mxGeometry y="190" width="160" height="26" as="geometry" />
        </mxCell>
        <mxCell id="y6D1HJ4HrFxO0To-Xi7T-27" value="" style="endArrow=open;shadow=0;strokeWidth=1;rounded=0;endFill=1;edgeStyle=elbowEdgeStyle;elbow=vertical;sketch=1;hachureGap=4;jiggle=2;curveFitting=1;" edge="1" parent="1" source="y6D1HJ4HrFxO0To-Xi7T-1" target="y6D1HJ4HrFxO0To-Xi7T-18">
          <mxGeometry x="0.5" y="41" relative="1" as="geometry">
            <mxPoint x="280" y="92" as="sourcePoint" />
            <mxPoint x="440" y="92" as="targetPoint" />
            <mxPoint x="-40" y="32" as="offset" />
          </mxGeometry>
        </mxCell>
        <mxCell id="y6D1HJ4HrFxO0To-Xi7T-28" value="0..1" style="resizable=0;align=left;verticalAlign=bottom;labelBackgroundColor=none;fontSize=12;sketch=1;hachureGap=4;jiggle=2;curveFitting=1;" connectable="0" vertex="1" parent="y6D1HJ4HrFxO0To-Xi7T-27">
          <mxGeometry x="-1" relative="1" as="geometry">
            <mxPoint y="4" as="offset" />
          </mxGeometry>
        </mxCell>
        <mxCell id="y6D1HJ4HrFxO0To-Xi7T-29" value="1" style="resizable=0;align=right;verticalAlign=bottom;labelBackgroundColor=none;fontSize=12;sketch=1;hachureGap=4;jiggle=2;curveFitting=1;" connectable="0" vertex="1" parent="y6D1HJ4HrFxO0To-Xi7T-27">
          <mxGeometry x="1" relative="1" as="geometry">
            <mxPoint x="-7" y="4" as="offset" />
          </mxGeometry>
        </mxCell>
        <mxCell id="y6D1HJ4HrFxO0To-Xi7T-30" value="lives at" style="text;html=1;resizable=0;points=[];;align=center;verticalAlign=middle;labelBackgroundColor=none;rounded=0;shadow=0;strokeWidth=1;fontSize=12;" vertex="1" connectable="0" parent="y6D1HJ4HrFxO0To-Xi7T-27">
          <mxGeometry x="0.5" y="49" relative="1" as="geometry">
            <mxPoint x="-38" y="40" as="offset" />
          </mxGeometry>
        </mxCell>
      </root>
    </mxGraphModel>
  </diagram>
  <diagram id="g9CGyrWZUK-oXN6j3Nja" name="Mockup">
    <mxGraphModel dx="2833" dy="1028" grid="1" gridSize="10" guides="1" tooltips="1" connect="1" arrows="1" fold="1" page="1" pageScale="1" pageWidth="827" pageHeight="1169" math="0" shadow="0">
      <root>
        <mxCell id="0" />
        <mxCell id="1" parent="0" />
        <mxCell id="d6mL9r7aTs5oHf-mW6mQ-1" value="" style="html=1;shadow=0;dashed=0;shape=mxgraph.bootstrap.rect;fillColor=#222222;strokeColor=none;whiteSpace=wrap;rounded=0;fontSize=12;fontColor=#000000;align=center;hachureGap=4;" vertex="1" parent="1">
          <mxGeometry x="20" y="20" width="1150" height="40" as="geometry" />
        </mxCell>
        <mxCell id="d6mL9r7aTs5oHf-mW6mQ-2" value="Company" style="html=1;shadow=0;dashed=0;fillColor=none;strokeColor=none;shape=mxgraph.bootstrap.rect;fontColor=#999999;fontSize=14;whiteSpace=wrap;hachureGap=4;" vertex="1" parent="d6mL9r7aTs5oHf-mW6mQ-1">
          <mxGeometry width="115" height="40" as="geometry" />
        </mxCell>
        <mxCell id="d6mL9r7aTs5oHf-mW6mQ-3" value="People" style="html=1;shadow=0;dashed=0;shape=mxgraph.bootstrap.rect;fillColor=#000000;strokeColor=none;fontColor=#ffffff;spacingRight=30;whiteSpace=wrap;hachureGap=4;" vertex="1" parent="d6mL9r7aTs5oHf-mW6mQ-1">
          <mxGeometry x="115" width="129.375" height="40" as="geometry" />
        </mxCell>
        <mxCell id="d6mL9r7aTs5oHf-mW6mQ-4" value="84" style="html=1;shadow=0;dashed=0;shape=mxgraph.bootstrap.rrect;rSize=8;fillColor=#ff0000;strokeColor=none;fontColor=#ffffff;whiteSpace=wrap;hachureGap=4;" vertex="1" parent="d6mL9r7aTs5oHf-mW6mQ-3">
          <mxGeometry x="1" y="0.5" width="25" height="16" relative="1" as="geometry">
            <mxPoint x="-30" y="-8" as="offset" />
          </mxGeometry>
        </mxCell>
        <mxCell id="d6mL9r7aTs5oHf-mW6mQ-5" value="Violations" style="html=1;shadow=0;dashed=0;fillColor=none;strokeColor=none;shape=mxgraph.bootstrap.rect;fontColor=#999999;spacingRight=30;whiteSpace=wrap;hachureGap=4;" vertex="1" parent="d6mL9r7aTs5oHf-mW6mQ-1">
          <mxGeometry x="244.375" width="158.125" height="40" as="geometry" />
        </mxCell>
        <mxCell id="d6mL9r7aTs5oHf-mW6mQ-6" value="42" style="html=1;shadow=0;dashed=0;shape=mxgraph.bootstrap.rrect;rSize=8;fillColor=#ff0000;strokeColor=none;fontColor=#ffffff;whiteSpace=wrap;hachureGap=4;" vertex="1" parent="d6mL9r7aTs5oHf-mW6mQ-5">
          <mxGeometry x="1" y="0.5" width="25" height="16" relative="1" as="geometry">
            <mxPoint x="-30" y="-8" as="offset" />
          </mxGeometry>
        </mxCell>
        <mxCell id="d6mL9r7aTs5oHf-mW6mQ-7" value="Statistics" style="html=1;shadow=0;dashed=0;fillColor=none;strokeColor=none;shape=mxgraph.bootstrap.rect;fontColor=#999999;whiteSpace=wrap;hachureGap=4;" vertex="1" parent="d6mL9r7aTs5oHf-mW6mQ-1">
          <mxGeometry x="402.5" width="115" height="40" as="geometry" />
        </mxCell>
        <mxCell id="d6mL9r7aTs5oHf-mW6mQ-8" value="Settings" style="html=1;shadow=0;dashed=0;fillColor=none;strokeColor=none;shape=mxgraph.bootstrap.rect;fontColor=#999999;whiteSpace=wrap;hachureGap=4;" vertex="1" parent="d6mL9r7aTs5oHf-mW6mQ-1">
          <mxGeometry x="517.5" width="100.625" height="40" as="geometry" />
        </mxCell>
        <mxCell id="d6mL9r7aTs5oHf-mW6mQ-9" value="Profile" style="html=1;shadow=0;dashed=0;fillColor=none;strokeColor=none;shape=mxgraph.bootstrap.rect;fontColor=#999999;whiteSpace=wrap;hachureGap=4;" vertex="1" parent="d6mL9r7aTs5oHf-mW6mQ-1">
          <mxGeometry x="948.75" width="100.625" height="40" as="geometry" />
        </mxCell>
        <mxCell id="d6mL9r7aTs5oHf-mW6mQ-10" value="Log Out" style="html=1;shadow=0;dashed=0;fillColor=none;strokeColor=none;shape=mxgraph.bootstrap.rect;fontColor=#999999;whiteSpace=wrap;hachureGap=4;" vertex="1" parent="d6mL9r7aTs5oHf-mW6mQ-1">
          <mxGeometry x="1049.375" width="100.625" height="40" as="geometry" />
        </mxCell>
        <mxCell id="d6mL9r7aTs5oHf-mW6mQ-11" value="" style="html=1;shadow=0;dashed=0;shape=mxgraph.bootstrap.rrect;rSize=5;strokeColor=#dddddd;rounded=0;fontSize=12;align=center;hachureGap=4;" vertex="1" parent="1">
          <mxGeometry x="840" y="100" width="330" height="400" as="geometry" />
        </mxCell>
        <mxCell id="d6mL9r7aTs5oHf-mW6mQ-12" value="320x200" style="shape=rect;fontSize=24;fillColor=#f0f0f0;strokeColor=none;fontColor=#999999;whiteSpace=wrap;hachureGap=4;" vertex="1" parent="d6mL9r7aTs5oHf-mW6mQ-11">
          <mxGeometry x="5" y="5" width="320" height="200" as="geometry" />
        </mxCell>
        <mxCell id="d6mL9r7aTs5oHf-mW6mQ-13" value="Thumbnail label" style="html=1;shadow=0;dashed=0;shape=mxgraph.bootstrap.anchor;fontSize=26;align=left;whiteSpace=wrap;hachureGap=4;" vertex="1" parent="d6mL9r7aTs5oHf-mW6mQ-11">
          <mxGeometry x="15" y="220" width="300" height="40" as="geometry" />
        </mxCell>
        <mxCell id="d6mL9r7aTs5oHf-mW6mQ-14" value="Cras justo odio, dapibus ac facilisis in, egestas eget quam. Donec id elit non mi porta gravida at eget metus. Nullam id dolor id nibh ultricies vehicula ut id elit." style="html=1;shadow=0;dashed=0;shape=mxgraph.bootstrap.anchor;strokeColor=#dddddd;whiteSpace=wrap;align=left;verticalAlign=top;fontSize=14;whiteSpace=wrap;hachureGap=4;" vertex="1" parent="d6mL9r7aTs5oHf-mW6mQ-11">
          <mxGeometry x="15" y="260" width="300" height="80" as="geometry" />
        </mxCell>
        <mxCell id="d6mL9r7aTs5oHf-mW6mQ-15" value="Button" style="html=1;shadow=0;dashed=0;shape=mxgraph.bootstrap.rrect;rSize=5;fontSize=16;fillColor=#3D8BCD;strokeColor=none;fontColor=#ffffff;whiteSpace=wrap;hachureGap=4;" vertex="1" parent="d6mL9r7aTs5oHf-mW6mQ-11">
          <mxGeometry y="1" width="80" height="40" relative="1" as="geometry">
            <mxPoint x="15" y="-60" as="offset" />
          </mxGeometry>
        </mxCell>
        <mxCell id="d6mL9r7aTs5oHf-mW6mQ-16" value="Button" style="html=1;shadow=0;dashed=0;shape=mxgraph.bootstrap.rrect;rSize=5;fontSize=16;strokeColor=#dddddd;whiteSpace=wrap;hachureGap=4;" vertex="1" parent="d6mL9r7aTs5oHf-mW6mQ-11">
          <mxGeometry y="1" width="80" height="40" relative="1" as="geometry">
            <mxPoint x="100" y="-60" as="offset" />
          </mxGeometry>
        </mxCell>
        <mxCell id="d6mL9r7aTs5oHf-mW6mQ-17" value="Template name" style="html=1;shadow=0;dashed=0;shape=mxgraph.bootstrap.rect;strokeColor=none;fillColor=none;fontColor=#999999;align=left;spacingLeft=5;whiteSpace=wrap;rounded=0;hachureGap=4;" vertex="1" parent="1">
          <mxGeometry x="20" y="80" width="200" height="20" as="geometry" />
        </mxCell>
        <mxCell id="d6mL9r7aTs5oHf-mW6mQ-18" value="Uncompleted Profile" style="html=1;shadow=0;dashed=0;shape=mxgraph.bootstrap.rrect;rSize=5;strokeColor=#dddddd;;align=left;spacingLeft=10;fontSize=16;whiteSpace=wrap;rounded=0;hachureGap=4;" vertex="1" parent="1">
          <mxGeometry x="20" y="100" width="800" height="40" as="geometry" />
        </mxCell>
        <mxCell id="d6mL9r7aTs5oHf-mW6mQ-19" value="Subject" style="html=1;shadow=0;dashed=0;shape=mxgraph.bootstrap.rect;strokeColor=none;fillColor=none;fontColor=#999999;align=left;spacingLeft=5;whiteSpace=wrap;rounded=0;hachureGap=4;" vertex="1" parent="1">
          <mxGeometry x="20" y="160" width="200" height="20" as="geometry" />
        </mxCell>
        <mxCell id="d6mL9r7aTs5oHf-mW6mQ-20" value="Hello, %USER_FULL_NAME%" style="html=1;shadow=0;dashed=0;shape=mxgraph.bootstrap.rrect;rSize=5;strokeColor=#dddddd;align=left;spacingLeft=10;fontSize=16;whiteSpace=wrap;rounded=0;hachureGap=4;" vertex="1" parent="1">
          <mxGeometry x="20" y="180" width="800" height="40" as="geometry" />
        </mxCell>
        <mxCell id="d6mL9r7aTs5oHf-mW6mQ-21" value="Insert System Variable" style="html=1;shadow=0;dashed=0;shape=mxgraph.bootstrap.rect;strokeColor=none;fillColor=none;align=right;fontSize=10;whiteSpace=wrap;rounded=0;hachureGap=4;" vertex="1" parent="1">
          <mxGeometry x="670" y="160" width="120" height="20" as="geometry" />
        </mxCell>
        <mxCell id="d6mL9r7aTs5oHf-mW6mQ-22" value="" style="shape=triangle;strokeColor=none;fillColor=#000000;direction=south;rounded=0;shadow=1;fontSize=12;fontColor=#000000;align=center;html=1;hachureGap=4;" vertex="1" parent="1">
          <mxGeometry x="792" y="167" width="8" height="4" as="geometry" />
        </mxCell>
        <mxCell id="d6mL9r7aTs5oHf-mW6mQ-23" value="Message" style="html=1;shadow=0;dashed=0;shape=mxgraph.bootstrap.rect;strokeColor=none;fillColor=none;fontColor=#999999;align=left;spacingLeft=5;whiteSpace=wrap;rounded=0;hachureGap=4;" vertex="1" parent="1">
          <mxGeometry x="20" y="240" width="200" height="20" as="geometry" />
        </mxCell>
        <mxCell id="d6mL9r7aTs5oHf-mW6mQ-24" value="Hello %USER_FULL_NAME%!&#xa;&#xa;At vero eos et accusamus et iusto odio dignissimos ducimus, qui blanditiis praesentium voluptatum deleniti atque corrupti, quosdolores et quas molestias excepturi sint, obcaecati cupiditate non provident, similique sunt in culpa, qui officia deserunt mollitiaanimi, id est laborum et dolorum fuga. Et harum quidem rerum facilis est et expedita distinctio. Nam libero tempore, cum solutanobis est eligendi optio, cumque nihil impedit, quo minus id, quod maxime placeat, facere possimus, omnis voluptas assumendaest, omnis dolor repellendus." style="html=1;shadow=0;dashed=0;shape=mxgraph.bootstrap.rrect;rSize=5;fontSize=12;strokeColor=#dddddd;align=left;spacing=10;verticalAlign=top;whiteSpace=wrap;rounded=0;hachureGap=4;" vertex="1" parent="1">
          <mxGeometry x="20" y="260" width="800" height="240" as="geometry" />
        </mxCell>
        <mxCell id="d6mL9r7aTs5oHf-mW6mQ-25" value="Insert System Variable" style="html=1;shadow=0;dashed=0;shape=mxgraph.bootstrap.rect;strokeColor=none;fillColor=none;align=right;fontSize=10;whiteSpace=wrap;rounded=0;hachureGap=4;" vertex="1" parent="1">
          <mxGeometry x="670" y="240" width="120" height="20" as="geometry" />
        </mxCell>
        <mxCell id="d6mL9r7aTs5oHf-mW6mQ-26" value="" style="shape=triangle;strokeColor=none;fillColor=#000000;direction=south;rounded=0;shadow=1;fontSize=12;fontColor=#000000;align=center;html=1;hachureGap=4;" vertex="1" parent="1">
          <mxGeometry x="792" y="247" width="8" height="4" as="geometry" />
        </mxCell>
        <mxCell id="d6mL9r7aTs5oHf-mW6mQ-27" value="%USER_FULL_NAME%&#xa;%USER_EMAIL%&#xa;%USER_PROFILE_COMPLETENESS%&#xa;%USER_NUM_SUCCESS_TRADES%&#xa;%USER_FULL_NAME%&#xa;%USER_EMAIL%&#xa;%USER_PROFILE_COMPLETENESS%&#xa;%USER_NUM_SUCCESS_SELLS%" style="html=1;shadow=0;dashed=0;shape=mxgraph.bootstrap.rrect;fontSize=12;rSize=2;strokeColor=#dddddd;align=left;verticalAlign=top;spacing=10;shadow=1;whiteSpace=wrap;rounded=0;hachureGap=4;" vertex="1" parent="1">
          <mxGeometry x="570" y="255" width="240" height="140" as="geometry" />
        </mxCell>
        <mxCell id="d6mL9r7aTs5oHf-mW6mQ-28" value="Message Type" style="html=1;shadow=0;dashed=0;shape=mxgraph.bootstrap.rect;strokeColor=none;fillColor=none;fontColor=#999999;align=left;spacingLeft=5;whiteSpace=wrap;rounded=0;hachureGap=4;" vertex="1" parent="1">
          <mxGeometry x="20" y="520" width="200" height="20" as="geometry" />
        </mxCell>
        <mxCell id="d6mL9r7aTs5oHf-mW6mQ-29" value="Email + Push" style="html=1;shadow=0;dashed=0;shape=mxgraph.bootstrap.rrect;rSize=5;strokeColor=#dddddd;align=left;spacingLeft=10;fontSize=16;whiteSpace=wrap;rounded=0;hachureGap=4;" vertex="1" parent="1">
          <mxGeometry x="20" y="540" width="390" height="40" as="geometry" />
        </mxCell>
        <mxCell id="d6mL9r7aTs5oHf-mW6mQ-30" value="" style="shape=triangle;strokeColor=none;fillColor=#000000;direction=south;rounded=0;shadow=1;fontSize=12;fontColor=#000000;align=center;html=1;hachureGap=4;" vertex="1" parent="1">
          <mxGeometry x="390" y="557" width="10" height="5" as="geometry" />
        </mxCell>
        <mxCell id="d6mL9r7aTs5oHf-mW6mQ-31" value="Tap target" style="html=1;shadow=0;dashed=0;shape=mxgraph.bootstrap.rect;strokeColor=none;fillColor=none;fontColor=#999999;align=left;spacingLeft=5;whiteSpace=wrap;rounded=0;hachureGap=4;" vertex="1" parent="1">
          <mxGeometry x="430" y="520" width="200" height="20" as="geometry" />
        </mxCell>
        <mxCell id="d6mL9r7aTs5oHf-mW6mQ-32" value="Profile Screen" style="html=1;shadow=0;dashed=0;shape=mxgraph.bootstrap.rrect;rSize=5;strokeColor=#dddddd;align=left;spacingLeft=10;fontSize=16;whiteSpace=wrap;rounded=0;hachureGap=4;" vertex="1" parent="1">
          <mxGeometry x="430" y="540" width="390" height="40" as="geometry" />
        </mxCell>
        <mxCell id="d6mL9r7aTs5oHf-mW6mQ-33" value="" style="shape=triangle;strokeColor=none;fillColor=#000000;direction=south;rounded=0;shadow=1;fontSize=12;fontColor=#000000;align=center;html=1;hachureGap=4;" vertex="1" parent="1">
          <mxGeometry x="800" y="557" width="10" height="5" as="geometry" />
        </mxCell>
        <mxCell id="d6mL9r7aTs5oHf-mW6mQ-34" value="Send to Group" style="html=1;shadow=0;dashed=0;shape=mxgraph.bootstrap.rect;strokeColor=none;fillColor=none;fontColor=#999999;align=left;spacingLeft=5;whiteSpace=wrap;rounded=0;hachureGap=4;" vertex="1" parent="1">
          <mxGeometry x="20" y="600" width="200" height="20" as="geometry" />
        </mxCell>
        <mxCell id="d6mL9r7aTs5oHf-mW6mQ-35" value="Top Management" style="html=1;shadow=0;dashed=0;shape=mxgraph.bootstrap.checkbox;fontSize=12;strokeColor=#999999;align=left;labelPosition=right;spacingLeft=5;rounded=0;hachureGap=4;" vertex="1" parent="1">
          <mxGeometry x="30" y="623" width="14" height="14" as="geometry" />
        </mxCell>
        <mxCell id="d6mL9r7aTs5oHf-mW6mQ-36" value="Marketing Department" style="html=1;shadow=0;dashed=0;shape=mxgraph.bootstrap.rrect;fontSize=12;rSize=3;strokeColor=#999999;align=left;labelPosition=right;spacingLeft=5;rounded=0;hachureGap=4;" vertex="1" parent="1">
          <mxGeometry x="30" y="643" width="14" height="14" as="geometry" />
        </mxCell>
        <mxCell id="d6mL9r7aTs5oHf-mW6mQ-37" value="Design Department" style="html=1;shadow=0;dashed=0;shape=mxgraph.bootstrap.checkbox;fontSize=12;strokeColor=#999999;align=left;labelPosition=right;spacingLeft=5;rounded=0;hachureGap=4;" vertex="1" parent="1">
          <mxGeometry x="30" y="663" width="14" height="14" as="geometry" />
        </mxCell>
        <mxCell id="d6mL9r7aTs5oHf-mW6mQ-38" value="Financial Department" style="html=1;shadow=0;dashed=0;shape=mxgraph.bootstrap.rrect;fontSize=12;rSize=3;strokeColor=#999999;align=left;labelPosition=right;spacingLeft=5;rounded=0;hachureGap=4;" vertex="1" parent="1">
          <mxGeometry x="30" y="683" width="14" height="14" as="geometry" />
        </mxCell>
        <mxCell id="d6mL9r7aTs5oHf-mW6mQ-39" value="Supply Department" style="html=1;shadow=0;dashed=0;shape=mxgraph.bootstrap.rrect;fontSize=12;rSize=3;strokeColor=#999999;align=left;labelPosition=right;spacingLeft=5;rounded=0;hachureGap=4;" vertex="1" parent="1">
          <mxGeometry x="30" y="703" width="14" height="14" as="geometry" />
        </mxCell>
        <mxCell id="d6mL9r7aTs5oHf-mW6mQ-40" value="Set Type" style="html=1;shadow=0;dashed=0;shape=mxgraph.bootstrap.rect;strokeColor=none;fillColor=none;fontColor=#999999;align=left;spacingLeft=5;whiteSpace=wrap;rounded=0;hachureGap=4;" vertex="1" parent="1">
          <mxGeometry x="430" y="600" width="200" height="20" as="geometry" />
        </mxCell>
        <mxCell id="d6mL9r7aTs5oHf-mW6mQ-41" value="" style="shape=ellipse;dashed=0;strokeColor=#999999;fillColor=#ffffff;html=1;rounded=0;shadow=1;fontSize=12;fontColor=#000000;align=center;hachureGap=4;" vertex="1" parent="1">
          <mxGeometry x="440" y="623" width="14" height="14" as="geometry" />
        </mxCell>
        <mxCell id="d6mL9r7aTs5oHf-mW6mQ-42" value="News" style="html=1;shadow=0;dashed=0;shape=mxgraph.bootstrap.rrect;align=center;rSize=3;strokeColor=none;fillColor=#58B957;fontColor=#ffffff;fontStyle=1;fontSize=10;whiteSpace=wrap;rounded=0;hachureGap=4;" vertex="1" parent="1">
          <mxGeometry x="460" y="623" width="40" height="14" as="geometry" />
        </mxCell>
        <mxCell id="d6mL9r7aTs5oHf-mW6mQ-43" value="" style="html=1;shadow=0;dashed=0;shape=mxgraph.bootstrap.radioButton;strokeColor=#999999;fillColor=#ffffff;rounded=0;fontSize=12;fontColor=#000000;align=center;hachureGap=4;" vertex="1" parent="1">
          <mxGeometry x="440" y="643" width="14" height="14" as="geometry" />
        </mxCell>
        <mxCell id="d6mL9r7aTs5oHf-mW6mQ-44" value="Reports" style="html=1;shadow=0;dashed=0;shape=mxgraph.bootstrap.rrect;align=center;rSize=3;strokeColor=none;fillColor=#55BFE0;fontColor=#ffffff;fontStyle=1;fontSize=10;whiteSpace=wrap;rounded=0;hachureGap=4;" vertex="1" parent="1">
          <mxGeometry x="460" y="643" width="50" height="14" as="geometry" />
        </mxCell>
        <mxCell id="d6mL9r7aTs5oHf-mW6mQ-45" value="" style="shape=ellipse;dashed=0;strokeColor=#999999;fillColor=#ffffff;html=1;rounded=0;shadow=1;fontSize=12;fontColor=#000000;align=center;hachureGap=4;" vertex="1" parent="1">
          <mxGeometry x="440" y="663" width="14" height="14" as="geometry" />
        </mxCell>
        <mxCell id="d6mL9r7aTs5oHf-mW6mQ-46" value="Documents" style="html=1;shadow=0;dashed=0;shape=mxgraph.bootstrap.rrect;align=center;rSize=3;strokeColor=none;fillColor=#EFAC43;fontColor=#ffffff;fontStyle=1;fontSize=10;whiteSpace=wrap;rounded=0;hachureGap=4;" vertex="1" parent="1">
          <mxGeometry x="460" y="663" width="70" height="14" as="geometry" />
        </mxCell>
        <mxCell id="d6mL9r7aTs5oHf-mW6mQ-47" value="" style="shape=ellipse;dashed=0;strokeColor=#999999;fillColor=#ffffff;html=1;rounded=0;shadow=1;fontSize=12;fontColor=#000000;align=center;hachureGap=4;" vertex="1" parent="1">
          <mxGeometry x="440" y="683" width="14" height="14" as="geometry" />
        </mxCell>
        <mxCell id="d6mL9r7aTs5oHf-mW6mQ-48" value="Media" style="html=1;shadow=0;dashed=0;shape=mxgraph.bootstrap.rrect;align=center;rSize=3;strokeColor=none;fillColor=#3D8BCD;fontColor=#ffffff;fontStyle=1;fontSize=10;whiteSpace=wrap;rounded=0;hachureGap=4;" vertex="1" parent="1">
          <mxGeometry x="460" y="683" width="40" height="14" as="geometry" />
        </mxCell>
        <mxCell id="d6mL9r7aTs5oHf-mW6mQ-49" value="" style="shape=ellipse;dashed=0;strokeColor=#999999;fillColor=#ffffff;html=1;rounded=0;shadow=1;fontSize=12;fontColor=#000000;align=center;hachureGap=4;" vertex="1" parent="1">
          <mxGeometry x="440" y="703" width="14" height="14" as="geometry" />
        </mxCell>
        <mxCell id="d6mL9r7aTs5oHf-mW6mQ-50" value="Text" style="html=1;shadow=0;dashed=0;shape=mxgraph.bootstrap.rrect;align=center;rSize=3;strokeColor=none;fillColor=#999999;fontColor=#ffffff;fontStyle=1;fontSize=10;whiteSpace=wrap;rounded=0;hachureGap=4;" vertex="1" parent="1">
          <mxGeometry x="460" y="703" width="30" height="14" as="geometry" />
        </mxCell>
        <mxCell id="d6mL9r7aTs5oHf-mW6mQ-51" value="Save Template" style="html=1;shadow=0;dashed=0;shape=mxgraph.bootstrap.rrect;align=center;rSize=5;strokeColor=none;fillColor=#3D8BCD;fontColor=#ffffff;fontSize=16;whiteSpace=wrap;rounded=0;hachureGap=4;" vertex="1" parent="1">
          <mxGeometry x="20" y="760" width="150" height="40" as="geometry" />
        </mxCell>
        <mxCell id="d6mL9r7aTs5oHf-mW6mQ-52" value="Cancel" style="html=1;shadow=0;dashed=0;shape=mxgraph.bootstrap.rrect;align=center;rSize=5;strokeColor=#dddddd;fontSize=16;whiteSpace=wrap;rounded=0;hachureGap=4;" vertex="1" parent="1">
          <mxGeometry x="190" y="760" width="100" height="40" as="geometry" />
        </mxCell>
        <mxCell id="d6mL9r7aTs5oHf-mW6mQ-53" value="Delete Template" style="html=1;shadow=0;dashed=0;shape=mxgraph.bootstrap.rrect;align=center;rSize=5;strokeColor=none;fillColor=#DB524C;fontColor=#ffffff;fontSize=16;whiteSpace=wrap;rounded=0;hachureGap=4;" vertex="1" parent="1">
          <mxGeometry x="650" y="760" width="170" height="40" as="geometry" />
        </mxCell>
        <mxCell id="d6mL9r7aTs5oHf-mW6mQ-54" value="" style="html=1;shadow=0;dashed=0;shape=mxgraph.bootstrap.rrect;rSize=5;strokeColor=#dddddd;rounded=0;fontSize=12;align=center;hachureGap=4;" vertex="1" parent="1">
          <mxGeometry x="840" y="530" width="330" height="400" as="geometry" />
        </mxCell>
        <mxCell id="d6mL9r7aTs5oHf-mW6mQ-55" value="320x200" style="shape=rect;fontSize=24;fillColor=#f0f0f0;strokeColor=none;fontColor=#999999;whiteSpace=wrap;hachureGap=4;" vertex="1" parent="d6mL9r7aTs5oHf-mW6mQ-54">
          <mxGeometry x="5" y="5" width="320" height="200" as="geometry" />
        </mxCell>
        <mxCell id="d6mL9r7aTs5oHf-mW6mQ-56" value="Thumbnail label" style="html=1;shadow=0;dashed=0;shape=mxgraph.bootstrap.anchor;fontSize=26;align=left;whiteSpace=wrap;hachureGap=4;" vertex="1" parent="d6mL9r7aTs5oHf-mW6mQ-54">
          <mxGeometry x="15" y="220" width="300" height="40" as="geometry" />
        </mxCell>
        <mxCell id="d6mL9r7aTs5oHf-mW6mQ-57" value="Cras justo odio, dapibus ac facilisis in, egestas eget quam. Donec id elit non mi porta gravida at eget metus. Nullam id dolor id nibh ultricies vehicula ut id elit." style="html=1;shadow=0;dashed=0;shape=mxgraph.bootstrap.anchor;strokeColor=#dddddd;whiteSpace=wrap;align=left;verticalAlign=top;fontSize=14;whiteSpace=wrap;hachureGap=4;" vertex="1" parent="d6mL9r7aTs5oHf-mW6mQ-54">
          <mxGeometry x="15" y="260" width="300" height="80" as="geometry" />
        </mxCell>
        <mxCell id="d6mL9r7aTs5oHf-mW6mQ-58" value="Button" style="html=1;shadow=0;dashed=0;shape=mxgraph.bootstrap.rrect;rSize=5;fontSize=16;fillColor=#3D8BCD;strokeColor=none;fontColor=#ffffff;whiteSpace=wrap;hachureGap=4;" vertex="1" parent="d6mL9r7aTs5oHf-mW6mQ-54">
          <mxGeometry y="1" width="80" height="40" relative="1" as="geometry">
            <mxPoint x="15" y="-60" as="offset" />
          </mxGeometry>
        </mxCell>
        <mxCell id="d6mL9r7aTs5oHf-mW6mQ-59" value="Button" style="html=1;shadow=0;dashed=0;shape=mxgraph.bootstrap.rrect;rSize=5;fontSize=16;strokeColor=#dddddd;whiteSpace=wrap;hachureGap=4;" vertex="1" parent="d6mL9r7aTs5oHf-mW6mQ-54">
          <mxGeometry y="1" width="80" height="40" relative="1" as="geometry">
            <mxPoint x="100" y="-60" as="offset" />
          </mxGeometry>
        </mxCell>
      </root>
    </mxGraphModel>
  </diagram>
</mxfile>
